<!-- Generated by IcoMoon.io -->
<svg version="1.1" xmlns="http://www.w3.org/2000/svg" width="32" height="32" viewBox="0 0 32 32">
<title>camper</title>
<path fill="#fff" d="M29.5 19h2v2.065h-2v-2.065z"></path>
<path fill="#737373" d="M26.5 25c0-0.552-0.448-1-1-1s-1 0.448-1 1c0 0.552 0.448 1 1 1v0c0.552 0 1-0.448 1-1v0zM25.5 22.5c1.381 0 2.5 1.119 2.5 2.5s-1.119 2.5-2.5 2.5c-1.381 0-2.5-1.119-2.5-2.5v0c0-1.381 1.119-2.5 2.5-2.5v0z"></path>
<path fill="#737373" d="M6.5 22.5c1.381 0 2.5 1.119 2.5 2.5s-1.119 2.5-2.5 2.5c-1.381 0-2.5-1.119-2.5-2.5v0c0-1.381 1.119-2.5 2.5-2.5v0zM7.5 25c0-0.552-0.448-1-1-1s-1 0.448-1 1c0 0.552 0.448 1 1 1v0c0.552 0 1-0.448 1-1v0z"></path>
<path fill="#ff2c55" d="M10.5 10.5h5v14.5h-5v-14.5z"></path>
<path fill="#fc0" d="M31.5 21.065v3.935h-3.5c0-1.381-1.119-2.5-2.5-2.5s-2.5 1.119-2.5 2.5v0h-5.5v-14.5h2v6.5h12v2h-2v2.065z"></path>
<path fill="#fc0" d="M17.5 10.5v14.5h-2v-14.5h-5v14.5h-1.5c0-1.381-1.119-2.5-2.5-2.5s-2.5 1.119-2.5 2.5v0h-3.5v-18.5h17zM8.5 15.5v-5h-6v5z"></path>
<path fill="#32c2bf" d="M26 10.5l5.5 6.5h-12v-6.5h6.5z"></path>
<path fill="#32c2bf" d="M2.5 10.5h6v5h-6v-5z"></path>
<path fill="#32c2bf" d="M28.050 8.5h-8.55v-2h5c2.060 0 3.065 1 3.55 2z"></path>
<path fill="#fc0" d="M30.5 10.5h-13v-4h-17s0-2 1.5-2h22.5c6 0 6 6 6 6zM19.5 8.5h8.55c-0.5-1-1.5-2-3.55-2h-5z"></path>
<path fill="#000" d="M26.5 25c0 0.552-0.448 1-1 1s-1-0.448-1-1c0-0.552 0.448-1 1-1s1 0.448 1 1z"></path>
<path fill="#000" d="M7.5 25c0 0.552-0.448 1-1 1s-1-0.448-1-1c0-0.552 0.448-1 1-1s1 0.448 1 1z"></path>
<path fill="none" stroke="#43f0ec" stroke-linejoin="round" stroke-linecap="butt" stroke-miterlimit="4" stroke-width="1" d="M26.5 16h4"></path>
<path fill="none" stroke="#000" stroke-linejoin="round" stroke-linecap="round" stroke-miterlimit="4" stroke-width="1" d="M25 10.5h-7.5v-4h-17"></path>
<path fill="none" stroke="#000" stroke-linejoin="round" stroke-linecap="round" stroke-miterlimit="4" stroke-width="1" d="M28.5 25h3v-8l-5.5-6.5"></path>
<path fill="none" stroke="#000" stroke-linejoin="round" stroke-linecap="round" stroke-miterlimit="4" stroke-width="1" d="M3.5 25h-3v-19.5c0-0.552 0.448-1 1-1v0h23c6 0 6 6 6 6h-5.5"></path>
<path fill="none" stroke="#000" stroke-linejoin="round" stroke-linecap="round" stroke-miterlimit="4" stroke-width="1" d="M19.5 8.5h8.55c-0.5-1-1.5-2-3.55-2h-5z"></path>
<path fill="none" stroke="#000" stroke-linejoin="round" stroke-linecap="round" stroke-miterlimit="4" stroke-width="1" d="M15.5 25h7.5"></path>
<path fill="none" stroke="#000" stroke-linejoin="round" stroke-linecap="round" stroke-miterlimit="4" stroke-width="1" d="M9 25c0 1.381-1.119 2.5-2.5 2.5s-2.5-1.119-2.5-2.5c0-1.381 1.119-2.5 2.5-2.5s2.5 1.119 2.5 2.5z"></path>
<path fill="none" stroke="#000" stroke-linejoin="round" stroke-linecap="round" stroke-miterlimit="4" stroke-width="1" d="M28 25c0 1.381-1.119 2.5-2.5 2.5s-2.5-1.119-2.5-2.5c0-1.381 1.119-2.5 2.5-2.5s2.5 1.119 2.5 2.5z"></path>
<path fill="none" stroke="#000" stroke-linejoin="round" stroke-linecap="round" stroke-miterlimit="4" stroke-width="1" d="M10.5 10.5h5v14.5h-5v-14.5z"></path>
<path fill="none" stroke="#000" stroke-linejoin="round" stroke-linecap="round" stroke-miterlimit="4" stroke-width="1" d="M17.5 25v-14.5"></path>
<path fill="none" stroke="#000" stroke-linejoin="round" stroke-linecap="round" stroke-miterlimit="4" stroke-width="1" d="M19.5 10.5v6.5h12"></path>
<path fill="none" stroke="#000" stroke-linejoin="round" stroke-linecap="round" stroke-miterlimit="4" stroke-width="1" d="M31.5 21.065h-2v-2.065h2"></path>
<path fill="none" stroke="#000" stroke-linejoin="round" stroke-linecap="round" stroke-miterlimit="4" stroke-width="1" d="M2.5 10.5h6v5h-6v-5z"></path>
<path fill="none" stroke="#000" stroke-linejoin="round" stroke-linecap="round" stroke-miterlimit="4" stroke-width="1" d="M9 25h1.5"></path>
<path fill="none" stroke="#000" stroke-linejoin="round" stroke-linecap="round" stroke-miterlimit="4" stroke-width="1" d="M14 17h-0.5"></path>
<path fill="none" stroke="#000" stroke-linejoin="round" stroke-linecap="round" stroke-miterlimit="4" stroke-width="1" d="M26 10.5v6.5"></path>
<path fill="none" stroke="#43f0ec" stroke-linejoin="round" stroke-linecap="butt" stroke-miterlimit="4" stroke-width="1" d="M20 16h5.5"></path>
<path fill="none" stroke="#43f0ec" stroke-linejoin="round" stroke-linecap="butt" stroke-miterlimit="4" stroke-width="1" d="M3 14.5h5"></path>
</svg>
